<?xml version="1.0" encoding="UTF-8"?>
<!DOCTYPE svg PUBLIC "-//W3C//DTD SVG 1.1//EN" "http://www.w3.org/Graphics/SVG/1.1/DTD/svg11.dtd">
<!-- Creator: CorelDRAW 2020 (64 Bit) -->
<svg xmlns="http://www.w3.org/2000/svg" xml:space="preserve" width="44.581mm" height="57.5028mm" version="1.1" style="shape-rendering:geometricPrecision; text-rendering:geometricPrecision; image-rendering:optimizeQuality; fill-rule:evenodd; clip-rule:evenodd"
viewBox="0 0 6269.77 8087.06"
 xmlns:xlink="http://www.w3.org/1999/xlink"
 xmlns:xodm="http://www.corel.com/coreldraw/odm/2003">
 <defs>
  <style type="text/css">
   <![CDATA[
    .fil0 {fill:#4180AB}
   ]]>
  </style>
 </defs>
 <g id="Camada_x0020_1">
  <metadata id="CorelCorpID_0Corel-Layer"/>
  <path class="fil0" d="M4564.37 1546.99c881.35,-259.46 1104.26,924.71 377.98,1150.11 -378.69,117.53 -709.84,-75.54 -798.48,-390.47 -123.21,-437.71 91.06,-662.66 420.51,-759.64zm-2625.45 1795.53c-886.66,0 -1131.46,169.57 -1449.55,803.95 -164.7,328.45 -531.47,1358.18 -485.38,1753.96 506.84,-234.75 1041.41,-503.72 1689.38,-548.26 2.35,480.19 143.23,716.28 432.21,909.04 427.38,285.07 705.1,138.02 1174.41,91.86 47.7,278.27 117.18,513.52 149.84,811.16 33.11,301.56 22.11,636.58 76.75,919.21 717.84,-501.06 2117.64,-1584 1413.73,-2954.82 228.44,-395.84 779.05,-677.49 1152,-2172.18 284.57,-1140.49 184.53,-1843.55 -4.53,-2956.44 -2000.09,252.99 -3558.5,1789.26 -4148.85,3342.52z"/>
  <path class="fil0" d="M1073.47 8087.06c916.49,-45.16 1648.15,-289.81 1575.38,-1274.87 -204.33,230.97 -140.85,276.42 -440.04,445.1 -257.63,145.25 -449.35,185.53 -794.17,171.96 -88.55,-516.45 -241.67,-863.29 86.97,-1289.97 -942.43,45.97 -716.56,1611.9 -428.14,1947.77z"/>
 </g>
</svg>
