<?xml version="1.0" encoding="UTF-8"?>
<!DOCTYPE svg PUBLIC "-//W3C//DTD SVG 1.1//EN" "http://www.w3.org/Graphics/SVG/1.1/DTD/svg11.dtd">
<!-- Creator: CorelDRAW 2020 (64 Bit) -->
<svg xmlns="http://www.w3.org/2000/svg" xml:space="preserve" width="46.2597mm" height="45.1186mm" version="1.1" style="shape-rendering:geometricPrecision; text-rendering:geometricPrecision; image-rendering:optimizeQuality; fill-rule:evenodd; clip-rule:evenodd"
viewBox="0 0 2164.25 2110.86"
 xmlns:xlink="http://www.w3.org/1999/xlink"
 xmlns:xodm="http://www.corel.com/coreldraw/odm/2003">
 <defs>
  <style type="text/css">
   <![CDATA[
    .fil0 {fill:#4180AB}
   ]]>
  </style>
 </defs>
 <g id="Camada_x0020_1">
  <metadata id="CorelCorpID_0Corel-Layer"/>
  <path class="fil0" d="M1574.92 423.38c-104.24,-0.56 -46.26,-57.63 -122.82,-123.15 -72.52,-62.06 -124.78,-13.04 -126.8,-129.05 90.37,-46.71 328.46,139.53 249.62,252.2zm-495.14 788.09c196.88,-108.06 595.77,-466.52 668.89,-711.91 98.93,-331.98 -209.09,-590.99 -478.95,-461.73 -116.26,55.69 -121.02,94.35 -185.86,169.47 -57.72,-34.79 -226.98,-289.17 -484.86,-180.47 -144.18,60.77 -252.18,263.41 -193.45,462.07 47.28,159.93 191.23,328.12 280.31,412.51 79.43,75.24 289.76,263.95 393.93,310.05z"/>
  <path class="fil0" d="M1012.74 2104.27c9.53,-92.2 -18.74,-560.72 -45.68,-625.39 -89.23,-214.12 -203.87,-27.99 -398.85,-278.04 -39.09,-50.13 -97.26,-142.46 -172.48,-158.02 -105.33,-21.79 -175.82,61.35 -150.78,166.77 12.91,54.37 107.24,160.84 134.82,195.8 60.03,76.08 120.49,117.33 126.45,231.56 -73.94,-37.49 -193.05,-212.44 -245.04,-277.78 -138.51,-174.08 -62.15,-178.31 -59.78,-388.94 1.42,-126.43 53.79,-426.81 -125.82,-382.41 -109.14,26.98 -66.8,356.74 -70.57,464.26 -6.52,185.87 -1.29,296.82 96.69,416.83 188.37,230.74 159.21,242.58 376.56,382.6 84.65,54.53 57.04,89.24 71.66,192.23 13.6,95.82 88.34,61.07 199.73,60.56 87.67,-0.4 175.42,-0.04 263.1,-0.04z"/>
  <path class="fil0" d="M1962.72 688.98l0 330.09c0,213.94 77.55,159.77 -69.35,351.58 -50.5,65.95 -172.03,235.76 -235.93,265.26 4.11,-110.08 61.69,-149.15 116.92,-219.68 39.89,-50.94 128.89,-149.95 142.38,-205.33 25.92,-106.4 -33.31,-183.86 -139.25,-169.96 -160.67,21.08 -166.87,268.1 -380.14,299.82 -102.29,15.21 -170.97,58.8 -203.68,138.95 -26.01,63.73 -51.59,537.58 -43.76,624.56l450.81 -0.58c60.91,-265.04 -42.5,-152.78 153.75,-294 110.44,-79.47 133.94,-119.92 217.95,-228.39 44.15,-57 98.89,-116.41 129.39,-167.58 83.94,-140.8 70.32,-741.08 34.05,-791.3 -54.27,-75.16 -173.14,-43.65 -173.14,66.56z"/>
 </g>
</svg>
