<?xml version="1.0" encoding="UTF-8"?>
<!DOCTYPE svg PUBLIC "-//W3C//DTD SVG 1.1//EN" "http://www.w3.org/Graphics/SVG/1.1/DTD/svg11.dtd">
<!-- Creator: CorelDRAW 2020 (64 Bit) -->
<svg xmlns="http://www.w3.org/2000/svg" xml:space="preserve" width="64.3438mm" height="36.1515mm" version="1.1" style="shape-rendering:geometricPrecision; text-rendering:geometricPrecision; image-rendering:optimizeQuality; fill-rule:evenodd; clip-rule:evenodd"
viewBox="0 0 1439.48 808.77"
 xmlns:xlink="http://www.w3.org/1999/xlink"
 xmlns:xodm="http://www.corel.com/coreldraw/odm/2003">
 <defs>
  <style type="text/css">
   <![CDATA[
    .fil0 {fill:#4180AB}
   ]]>
  </style>
 </defs>
 <g id="Camada_x0020_1">
  <metadata id="CorelCorpID_0Corel-Layer"/>
  <path class="fil0" d="M547.04 188.86c138.59,-43.73 205.67,165.02 70.11,216.24 -140.68,53.16 -227.52,-166.57 -70.11,-216.24zm502.66 214.57c0,-53.62 -13.06,-95.9 -35.14,-138.4 -25.84,-49.74 -54.22,-63.77 -77.83,-99.36 110.9,22.95 313.63,163.54 343.56,237.76 1.86,59.88 -233.43,207.67 -349.49,242.69 52.7,-56.92 118.89,-114.48 118.89,-242.69zm-539.14 242.19c-105.99,-16.75 -350.55,-182.35 -349.44,-242.13 1.24,-67.13 244.92,-217.9 350.43,-241.76 -168.77,129.25 -151.17,376.91 -0.99,483.89zm127.29 -640.73c-212.91,26.14 -517.14,186.99 -623.01,358.36 -27.75,44.93 -12.47,66.37 12.52,99.56 125.6,166.81 449.03,383.26 784.17,340.46 156.85,-20.03 292.1,-88.35 398.28,-160.66 63.24,-43.07 100.84,-75.85 151.77,-124.61 85.71,-82.06 97.66,-112.48 50.76,-169.35 -172.01,-208.55 -478.22,-380.15 -774.48,-343.77z"/>
 </g>
</svg>
